<svg width="205" height="56" viewBox="0 0 205 56" fill="none" xmlns="http://www.w3.org/2000/svg">
<path d="M100.402 1.05417C76.8514 -1.34584 61.8512 1.80418 54.3512 4.2042V20.4043L54.4262 20.4793C59.0762 16.1293 64.8513 13.2043 70.7763 11.1793V54.4546H81.9514V8.40423C90.2015 6.90422 97.4766 6.75422 100.702 6.45422L100.402 1.05417Z" fill="#898989"/>
<path d="M0.0503196 54.5293H15.2005C15.2005 47.1042 15.8005 40.8042 16.7755 35.4041H38.9757V54.5293H50.1509V4.35384V1.50382V0.528809C-3.54972 0.528809 0.0503196 54.5293 0.0503196 54.5293ZM38.9007 29.7791H18.0505C22.5506 13.4289 31.6257 7.27887 38.9007 5.17885V29.7791Z" fill="#898989"/>
<path d="M154.852 0.528809V1.42882V54.4543H166.027V5.17885C176.227 8.17888 189.802 18.904 189.802 54.5293H204.953C204.953 54.5293 208.478 0.528809 154.852 0.528809Z" fill="#898989"/>
<path d="M133.252 24.8292C134.452 26.7043 135.277 28.7293 135.652 30.9043C135.652 31.0543 135.727 31.1293 135.727 31.2793C135.802 31.6543 135.802 31.9543 135.877 32.3293C135.877 32.4793 135.877 32.6293 135.952 32.7793C136.327 37.6544 134.527 42.6044 130.702 46.2045C124.027 52.4296 113.601 51.9795 107.451 45.3045C107.001 44.8545 106.626 44.3295 106.251 43.8045L103.251 46.6545C113.601 57.5296 130.702 58.0546 141.727 47.7795C151.627 38.6294 153.277 23.8542 146.377 12.8291L133.252 24.8292Z" fill="#898989"/>
<path d="M110.001 24.2291C110.001 24.0791 109.926 24.0041 109.926 23.854C109.851 23.479 109.851 23.179 109.776 22.804C109.776 22.654 109.776 22.504 109.701 22.429C109.326 17.554 111.126 12.604 114.951 9.00393C121.626 2.77888 132.052 3.22888 138.202 9.90394C138.652 10.3539 139.027 10.8789 139.327 11.3289L142.327 8.47892C131.977 -2.32116 114.876 -2.92117 103.851 7.35392C94.0261 16.504 92.301 31.2791 99.2011 42.3042L112.251 30.1541C111.201 28.4291 110.376 26.3291 110.001 24.2291Z" fill="#898989"/>
<path d="M100.401 0.745224C76.8508 -0.951664 61.8507 1.2755 54.3506 2.97239V14.4264L54.4256 14.4794C59.0757 11.4038 64.8507 9.33572 70.7758 7.90397V38.501H81.9509V5.94194C90.201 4.88139 97.476 4.77533 100.701 4.56322L100.401 0.745224Z" fill="#898989"/>
<path d="M0.0503196 38.554H15.2005C15.2005 33.3042 15.8005 28.8499 16.7755 25.0319H38.9757V38.554H50.1509V3.07844V1.06338V0.374023C-3.54972 0.374023 0.0503196 38.554 0.0503196 38.554ZM38.9007 21.0548H18.0505C22.5506 9.49479 31.6257 5.14651 38.9007 3.66174V21.0548Z" fill="#898989"/>
<path d="M154.852 0.374023V1.01036V38.5009H166.027V3.66174C176.227 5.78285 189.802 13.3658 189.802 38.554H204.953C204.953 38.554 208.478 0.374023 154.852 0.374023Z" fill="#898989"/>
<path d="M133.252 17.5548C134.452 18.8804 135.277 20.3122 135.652 21.85C135.652 21.9561 135.727 22.0091 135.727 22.1151C135.802 22.3803 135.802 22.5924 135.877 22.8575C135.877 22.9636 135.877 23.0696 135.952 23.1757C136.327 26.6225 134.527 30.1223 130.702 32.6677C124.027 37.069 113.601 36.7508 107.451 32.0313C107.001 31.7132 106.626 31.342 106.251 30.9708L103.251 32.9858C113.601 40.6749 130.702 41.0461 141.727 33.7812C151.627 27.3119 153.277 16.8654 146.377 9.07031L133.252 17.5548Z" fill="#898989"/>
<path d="M110.001 17.1306C110.001 17.0245 109.926 16.9715 109.926 16.8654C109.851 16.6003 109.851 16.3882 109.776 16.123C109.776 16.017 109.776 15.9109 109.701 15.8579C109.326 12.4111 111.126 8.91132 114.951 6.36601C121.626 1.96474 132.052 2.2829 138.202 7.00234C138.652 7.3205 139.027 7.69169 139.327 8.00986L142.327 5.99482C131.977 -1.64112 114.876 -2.06534 103.851 5.19941C94.0261 11.6687 92.301 22.1151 99.2011 29.9102L112.251 21.3197C111.201 20.1001 110.376 18.6153 110.001 17.1306Z" fill="#898989"/>
</svg>
