<svg width="1000" height="360" viewBox="0 0 1000 360" fill="none" xmlns="http://www.w3.org/2000/svg">
<mask id="mask0_1_15" style="mask-type:alpha" maskUnits="userSpaceOnUse" x="0" y="0" width="1000" height="360">
<path d="M0 12C0 5.37259 5.37258 0 12 0H988C994.627 0 1000 5.37258 1000 12V360H0V12Z" fill="#E1E9F2"/>
</mask>
<g mask="url(#mask0_1_15)">
<rect x="1.00001" y="-223" width="999" height="666" fill="#E1E9F2"/>
<rect x="-0.999001" y="-200" width="1057" height="703" fill="#E1E9F2"/>
<circle cx="501.154" cy="180" r="151" fill="white" fill-opacity="0.3"/>
</g>
<g clip-path="url(#clip0_1_15)">
<path d="M619.591 243.679H382.716C376.126 243.679 370.884 238.176 371.154 231.635L376.627 109.508C376.897 103.352 381.984 98.4654 388.189 98.4654H613.618C619.784 98.4654 624.872 103.314 625.18 109.431L631.192 231.52C631.462 238.176 626.221 243.679 619.591 243.679Z" fill="#858585"/>
<path d="M467.816 243.679C467.816 243.679 468.239 251.528 463.113 251.528H396.977C394.317 251.528 391.696 252.221 389.345 253.529L382.1 257.684H604.599C604.599 257.684 602.864 248.719 604.599 243.679H467.816Z" fill="#676767"/>
<path d="M382.1 257.684V267.304C382.1 267.304 383.063 271.074 392.621 271.074C402.18 271.074 435.711 271.074 435.711 271.074L438.601 268.381H563.475L567.715 271.382H600.86C600.86 271.382 605.408 271.998 605.293 265.38C605.177 258.762 604.56 257.684 604.56 257.684" fill="#858585"/>
<path d="M417.519 271.074H404.261V276.654H417.519V271.074Z" fill="#676767"/>
<path d="M593.229 271.421H579.971V277H593.229V271.421Z" fill="#676767"/>
<path d="M619.59 234.175H382.715C376.124 234.175 370.883 228.673 371.152 222.131L376.625 100.043C376.895 93.8481 381.983 89 388.188 89H613.616C619.783 89 624.87 93.8481 625.179 99.966L631.191 222.054C631.461 228.673 626.219 234.175 619.59 234.175Z" fill="#676767"/>
<path d="M602.749 220.246H399.559C393.893 220.246 389.384 215.821 389.654 210.511L394.317 111.856C394.548 106.853 398.904 102.929 404.222 102.929H597.584C602.865 102.929 607.22 106.815 607.49 111.817L612.616 210.473C612.924 215.783 608.415 220.246 602.749 220.246Z" fill="white"/>
</g>
<ellipse cx="612.654" cy="120" rx="57.5" ry="57" fill="#ED1B2F"/>
<path d="M587.785 123.365C587.658 122.304 587.593 121.251 587.593 120.324C587.593 106.493 598.991 95.0827 612.809 95.0827C619.254 95.0827 625.288 97.684 629.727 101.741L627.501 104.007C626.999 104.51 626.806 105.243 626.999 105.939C627.231 106.596 627.771 107.098 628.466 107.253C628.854 107.331 641.616 111.447 640.804 111.284C641.837 111.628 643.366 110.525 643.081 109.004C643.003 108.615 640.177 94.4242 640.341 95.2372C640.187 94.5419 639.684 93.9624 638.99 93.7692C638.334 93.5761 637.6 93.7692 637.099 94.2713L635.208 96.1256C629.38 90.6785 621.377 87.3558 612.809 87.3558C594.707 87.3558 579.873 102.205 579.873 120.324V120.401C579.873 121.49 579.923 122.332 579.981 122.976C580.058 123.829 580.686 124.528 581.525 124.696L585.49 125.49C586.78 125.748 587.941 124.665 587.785 123.365Z" fill="white"/>
<path d="M644.104 115.949L640.127 115.138C638.835 114.874 637.667 115.959 637.826 117.265C637.963 118.392 638.025 119.488 638.025 120.324C638.025 134.155 626.626 145.565 612.809 145.565C606.363 145.565 600.329 142.964 595.891 138.869L598.116 136.641C598.618 136.139 598.811 135.405 598.618 134.709C598.386 134.052 597.846 133.55 597.151 133.396C596.763 133.317 584.001 129.201 584.814 129.365C584.157 129.249 583.501 129.442 583.077 129.905C582.614 130.33 582.421 131.026 582.536 131.644C582.615 132.033 585.44 146.095 585.277 145.282C585.431 145.977 585.933 146.557 586.627 146.75C587.433 146.952 588.106 146.707 588.519 146.248L590.372 144.393C596.199 149.841 604.202 153.292 612.809 153.292C630.91 153.292 645.744 138.444 645.744 120.324V120.208C645.744 119.352 645.713 118.511 645.641 117.675C645.568 116.822 644.942 116.121 644.104 115.949Z" fill="white"/>
<path d="M492.117 173.84L488.397 119H510.717L506.997 173.84H492.117ZM499.557 203.96C496.197 203.96 493.437 202.88 491.277 200.72C489.117 198.56 488.037 196 488.037 193.04C488.037 190 489.117 187.48 491.277 185.48C493.437 183.4 496.197 182.36 499.557 182.36C502.997 182.36 505.757 183.4 507.837 185.48C509.997 187.48 511.077 190 511.077 193.04C511.077 196 509.997 198.56 507.837 200.72C505.757 202.88 502.997 203.96 499.557 203.96Z" fill="#DAE2EF"/>
<defs>
<clipPath id="clip0_1_15">
<rect width="260" height="188" fill="white" transform="translate(371.154 89)"/>
</clipPath>
</defs>
</svg>
