<svg width="255" height="74" viewBox="0 0 255 74" fill="none" xmlns="http://www.w3.org/2000/svg">
<g filter="url(#filter0_d_1_87)">
<path fill-rule="evenodd" clip-rule="evenodd" d="M222.319 34.6567C225.525 34.6567 228.197 33.5821 230.246 31.3433C232.295 29.1045 233.364 26.2388 233.364 22.4776C233.364 18.806 232.295 15.8507 230.246 13.6119C228.197 11.3731 225.525 10.2985 222.319 10.2985C219.112 10.2985 216.44 11.3731 214.302 13.6119C212.164 15.8507 211.184 18.7164 211.184 22.4776C211.184 26.1493 212.253 29.1045 214.302 31.3433C216.351 33.5821 219.023 34.6567 222.319 34.6567ZM89.4214 10.4776C86.2148 10.4776 83.5426 11.5522 81.4048 13.791C79.3561 16.0299 78.2873 18.8955 78.2873 22.6567C78.2873 26.3284 79.3561 29.2836 81.4048 31.5224C83.4535 33.7612 86.1257 34.8358 89.4214 34.8358C92.6281 34.8358 95.3002 33.7612 97.438 31.5224C99.4867 29.2836 100.556 26.4179 100.556 22.6567C100.556 18.9851 99.4867 16.0299 97.438 13.791C95.3002 11.5522 92.7171 10.4776 89.4214 10.4776ZM100.377 0.716418V5.10448C97.2598 1.70149 92.8953 0 87.2837 0C83.2754 0 79.5343 0.895522 76.2386 2.77612C72.9429 4.65672 70.2707 7.25373 68.4001 10.6567C66.5296 14.0597 65.5498 18 65.5498 22.4776C65.5498 26.9552 66.5296 30.8955 68.4001 34.2985C70.2707 37.7015 72.8538 40.2985 76.2386 42.1791C79.5343 44.0597 83.2754 44.9552 87.2837 44.9552C92.8062 44.9552 97.2598 43.1642 100.377 39.6716V43.6119C100.377 47.194 99.3085 50.1493 97.2599 52.2985C95.2112 54.5373 92.539 55.6119 89.2433 55.6119C86.0366 55.6119 83.2754 54.5373 81.2267 52.2985C80.5141 51.5821 79.9797 50.7761 79.5343 49.9701L67.3313 53.2836C67.5985 53.9104 67.9548 54.5373 68.3111 55.1642C70.3597 58.5672 73.2101 61.2537 76.8621 63.1343C80.5141 65.0149 84.6115 66 89.2433 66C93.786 66 97.9724 65.0149 101.535 63.1343C102.604 62.597 103.584 61.9702 104.475 61.2537C109.73 56.9552 113.204 51.403 113.026 43.1642V0.716418H100.377ZM27.2483 29.2836C23.151 26.9552 17.094 26.9552 12.1059 24.1791C3.91114 19.6119 2.84226 9.67164 10.2353 3.85075C13.531 1.25373 17.8066 0 23.151 0C28.8516 0 33.3944 1.25373 36.8682 3.85075C40.3421 6.44776 42.0345 9.85075 42.0345 14.0597H28.5844C28.5844 8.68657 22.7056 7.43284 19.588 10.0299C17.5393 11.7313 17.6284 14.5075 19.9443 15.9403C22.7056 17.7313 28.7626 18.2687 32.3255 19.5224C42.9252 23.194 45.9537 34.8358 36.8682 41.2836C30.6331 45.6716 20.2115 46.209 13.3529 42.9851C8.18665 40.7463 4.00021 36.1791 4.00021 30.3582H16.5595C16.7377 36.2687 24.398 37.6119 27.6046 35.0149C29.6533 33.3134 29.4751 30.6269 27.2483 29.2836ZM47.4679 0.716418H60.1163V44.5075H47.4679V0.716418ZM175.11 0C180.543 0 184.908 1.61194 188.115 4.83582C191.321 8.0597 192.924 12.8955 192.924 19.3433V44.4179H180.276V21.3134C180.276 18.0896 179.742 14.5075 176.98 12.4478C172.794 8.95522 166.381 10.1194 163.798 14.9552C162.729 16.8358 162.461 20.2388 162.461 22.4776V44.4179H149.813V21.3134C149.813 15.4925 147.23 10.3881 140.906 10.3881C136.897 10.3881 133.513 13.0746 132.533 16.7463C132.087 18.3582 132.177 20.7761 132.087 22.3881V44.3284H119.439V0.716418H132.087V5.10448C133.602 3.58209 135.383 2.32836 137.432 1.52239C139.748 0.537313 142.331 0.0895522 145.181 0.0895522C148.299 0.0895522 151.06 0.716418 153.554 1.8806C156.048 3.13433 158.008 4.83582 159.522 7.25373C161.303 5.01493 163.53 3.22388 166.292 1.97015C168.875 0.626866 171.814 0 175.11 0ZM245.834 18.5373L251 44.5075H238.263L237.461 40.4776C236.57 41.194 235.591 41.7313 234.522 42.3582C230.87 44.3284 226.772 45.2239 222.23 45.2239C217.687 45.2239 213.5 44.2388 209.848 42.3582C206.196 40.3881 203.346 37.791 201.297 34.3881C199.249 30.9851 198.18 27.1343 198.18 22.7463C198.18 18.4478 199.249 14.5075 201.297 11.1045C203.346 7.70149 206.196 5.01493 209.848 3.13433C213.5 1.16418 217.598 0.268657 222.23 0.268657C226.772 0.268657 230.959 1.25373 234.522 3.13433C238.174 5.10448 240.935 7.70149 242.984 11.1045C244.498 13.2537 245.389 15.7612 245.834 18.5373Z" fill="white"/>
</g>
<defs>
<filter id="filter0_d_1_87" x="0.000213623" y="0" width="255" height="74" filterUnits="userSpaceOnUse" color-interpolation-filters="sRGB">
<feFlood flood-opacity="0" result="BackgroundImageFix"/>
<feColorMatrix in="SourceAlpha" type="matrix" values="0 0 0 0 0 0 0 0 0 0 0 0 0 0 0 0 0 0 127 0" result="hardAlpha"/>
<feOffset dy="4"/>
<feGaussianBlur stdDeviation="2"/>
<feComposite in2="hardAlpha" operator="out"/>
<feColorMatrix type="matrix" values="0 0 0 0 0 0 0 0 0 0 0 0 0 0 0 0 0 0 0.25 0"/>
<feBlend mode="normal" in2="BackgroundImageFix" result="effect1_dropShadow_1_87"/>
<feBlend mode="normal" in="SourceGraphic" in2="effect1_dropShadow_1_87" result="shape"/>
</filter>
</defs>
</svg>
