<svg width="40" height="38" viewBox="0 0 40 38" fill="none" xmlns="http://www.w3.org/2000/svg">
<path d="M19.9996 0.015625C18.6248 0.015625 17.2503 0.7218 16.5432 2.13506L13.3493 8.5181C12.7871 9.63993 11.7025 10.4178 10.4464 10.5973L3.30383 11.6217C0.142826 12.074 -1.11938 15.9055 1.16821 18.1052L6.33605 23.0734C7.24486 23.9468 7.65929 25.2048 7.44536 26.4383L6.22466 33.4536C5.79711 35.9112 7.77678 37.9065 10.0229 37.9065C10.6155 37.9065 11.2271 37.7673 11.8176 37.4612L18.2058 34.1491C18.7673 33.858 19.3835 33.7124 19.9996 33.7124C20.6158 33.7124 21.2319 33.858 21.7932 34.1491L28.1817 37.4612C28.7722 37.7673 29.3835 37.9065 29.9761 37.9065C32.2219 37.9065 34.2016 35.9109 33.7743 33.4536L32.5545 26.4383C32.3397 25.2048 32.7544 23.9468 33.6632 23.0731L38.8317 18.1049C41.1196 15.9055 39.8571 12.074 36.6952 11.6217L29.5528 10.5973C28.2974 10.4175 27.2118 9.63993 26.6506 8.5181L23.4561 2.13476C22.7496 0.7218 21.3742 0.015625 19.9996 0.015625Z" fill="#ED1B2F"/>
</svg>
