<svg width="24" height="38" viewBox="0 0 24 38" fill="none" xmlns="http://www.w3.org/2000/svg">
<path d="M21.8601 15.2V10.032C21.8601 4.408 17.2741 0 11.7709 0C6.26774 0 1.68177 4.56 1.68177 10.184C1.68177 11.4 2.75183 12.464 3.97475 12.464C5.19768 12.464 6.26774 11.4 6.26774 10.184C6.26774 7.144 8.7136 4.712 11.7709 4.712C14.8282 4.712 17.2741 7.144 17.2741 10.184V14.136H5.65628C2.59896 14.136 0.000244141 16.72 0.000244141 19.76V32.376C0.000244141 35.416 2.59896 38 5.65628 38H18.3442C21.4015 38 24.0002 35.416 24.0002 32.376V19.76C24.0002 17.936 23.083 16.264 21.8601 15.2Z" fill="#343435"/>
</svg>
