<svg width="286" height="82" viewBox="0 0 286 82" fill="none" xmlns="http://www.w3.org/2000/svg">
<g filter="url(#filter0_d_1_11)">
<path fill-rule="evenodd" clip-rule="evenodd" d="M249.719 38.8575C253.328 38.8575 256.335 37.6526 258.641 35.1425C260.947 32.6323 262.15 29.4193 262.15 25.2022C262.15 21.0855 260.947 17.772 258.641 15.2619C256.335 12.7517 253.328 11.5468 249.719 11.5468C246.11 11.5468 243.102 12.7517 240.696 15.2619C238.29 17.772 237.187 20.9851 237.187 25.2022C237.187 29.3189 238.39 32.6323 240.696 35.1425C243.002 37.6526 246.009 38.8575 249.719 38.8575ZM100.142 11.7476C96.533 11.7476 93.5254 12.9525 91.1194 15.4627C88.8136 17.9729 87.6105 21.1859 87.6105 25.403C87.6105 29.5197 88.8136 32.8331 91.1194 35.3433C93.4252 37.8535 96.4327 39.0583 100.142 39.0583C103.751 39.0583 106.759 37.8535 109.165 35.3433C111.471 32.8331 112.674 29.6201 112.674 25.403C112.674 21.2863 111.471 17.9729 109.165 15.4627C106.759 12.9525 103.851 11.7476 100.142 11.7476ZM112.473 0.803257V5.7232C108.964 1.90773 104.052 0 97.736 0C93.2247 0 89.0141 1.00407 85.3047 3.11262C81.5954 5.22117 78.5878 8.13297 76.4825 11.9484C74.3772 15.7639 73.2744 20.1818 73.2744 25.2022C73.2744 30.2225 74.3772 34.6404 76.4825 38.4559C78.5878 42.2714 81.4951 45.1832 85.3047 47.2917C89.0141 49.4003 93.2247 50.4043 97.736 50.4043C103.952 50.4043 108.964 48.3962 112.473 44.4803V48.8982C112.473 52.9145 111.27 56.228 108.964 58.6377C106.658 61.1479 103.651 62.3528 99.9416 62.3528C96.3325 62.3528 93.2247 61.1479 90.9189 58.6377C90.1168 57.8345 89.5153 56.9308 89.0141 56.0271L75.2795 59.7422C75.5802 60.4451 75.9812 61.1479 76.3823 61.8507C78.6881 65.6662 81.8961 68.6784 86.0065 70.787C90.1169 72.8955 94.7285 74 99.9416 74C105.054 74 109.766 72.8955 113.776 70.787C114.979 70.1845 116.082 69.4817 117.085 68.6784C123 63.8589 126.909 57.6337 126.709 48.3962V0.803257H112.473ZM30.1659 32.8331C25.5543 30.2225 18.7371 30.2225 13.123 27.1099C3.89975 21.9891 2.69672 10.844 11.0177 4.3175C14.727 1.4057 19.5391 0 25.5543 0C31.9704 0 37.0833 1.4057 40.9932 4.3175C44.903 7.22931 46.8078 11.0448 46.8078 15.7639H31.6697C31.6697 9.73948 25.053 8.33379 21.5442 11.2456C19.2384 13.1533 19.3386 16.2659 21.9452 17.8725C25.053 19.8806 31.8702 20.483 35.8803 21.8887C47.8103 26.0054 51.2189 39.0583 40.9932 46.2877C33.9755 51.2076 22.2459 51.81 14.5265 48.1954C8.71186 45.6852 4 40.5645 4 34.038H18.1356C18.3361 40.6649 26.9578 42.171 30.5669 39.2592C32.8727 37.3514 32.6722 34.3392 30.1659 32.8331ZM52.9232 0.803257H67.159V49.9023H52.9232V0.803257ZM196.585 0C202.7 0 207.613 1.80733 211.222 5.42198C214.831 9.03664 216.635 14.4586 216.635 21.6879V49.8019H202.4V23.8969C202.4 20.2822 201.798 16.2659 198.69 13.9566C193.978 10.0407 186.76 11.346 183.853 16.768C182.65 18.8765 182.349 22.692 182.349 25.2022V49.8019H168.113V23.8969C168.113 17.3704 165.206 11.6472 158.088 11.6472C153.577 11.6472 149.767 14.6594 148.664 18.7761C148.163 20.5834 148.263 23.2944 148.163 25.1018V49.7015H133.927V0.803257H148.163V5.7232C149.867 4.01628 151.872 2.61058 154.178 1.70692C156.785 0.602442 159.692 0.100407 162.9 0.100407C166.409 0.100407 169.517 0.803256 172.324 2.10855C175.131 3.51425 177.336 5.42198 179.041 8.13297C181.046 5.6228 183.552 3.61465 186.66 2.20896C189.567 0.70285 192.876 0 196.585 0ZM276.185 20.7843L282 49.9023H267.664L266.762 45.384C265.759 46.1873 264.656 46.7897 263.453 47.4925C259.343 49.7015 254.731 50.7056 249.618 50.7056C244.506 50.7056 239.794 49.6011 235.683 47.4925C231.573 45.2836 228.365 42.3718 226.059 38.5563C223.753 34.7408 222.55 30.4233 222.55 25.5034C222.55 20.6839 223.753 16.2659 226.059 12.4505C228.365 8.63501 231.573 5.6228 235.683 3.51425C239.794 1.30529 244.405 0.301221 249.618 0.301221C254.731 0.301221 259.443 1.4057 263.453 3.51425C267.564 5.7232 270.671 8.63501 272.977 12.4505C274.682 14.8602 275.684 17.6716 276.185 20.7843Z" fill="black"/>
</g>
<defs>
<filter id="filter0_d_1_11" x="0" y="0" width="286" height="82" filterUnits="userSpaceOnUse" color-interpolation-filters="sRGB">
<feFlood flood-opacity="0" result="BackgroundImageFix"/>
<feColorMatrix in="SourceAlpha" type="matrix" values="0 0 0 0 0 0 0 0 0 0 0 0 0 0 0 0 0 0 127 0" result="hardAlpha"/>
<feOffset dy="4"/>
<feGaussianBlur stdDeviation="2"/>
<feComposite in2="hardAlpha" operator="out"/>
<feColorMatrix type="matrix" values="0 0 0 0 0 0 0 0 0 0 0 0 0 0 0 0 0 0 0.25 0"/>
<feBlend mode="normal" in2="BackgroundImageFix" result="effect1_dropShadow_1_11"/>
<feBlend mode="normal" in="SourceGraphic" in2="effect1_dropShadow_1_11" result="shape"/>
</filter>
</defs>
</svg>
